<svg width="23" height="22" viewBox="0 0 23 22" fill="none" xmlns="http://www.w3.org/2000/svg">
<mask id="mask0_26_188" style="mask-type:luminance" maskUnits="userSpaceOnUse" x="0" y="0" width="23" height="22">
<path d="M22.0863 0H0V22H22.0863V0Z" fill="white"/>
</mask>
<g mask="url(#mask0_26_188)">
<path d="M22.0863 5.17502V3.88477H0V5.17502H14.2047L14.1377 5.17982C14.1916 5.60711 14.2346 6.03679 14.2705 6.47007H22.0863V5.17982L22.0456 5.17502H22.0863Z" fill="white"/>
<path d="M5.83366 20.7141H12.1389L12.1317 20.719C11.9581 21.151 11.7762 21.5771 11.5859 21.9995C13.264 21.9193 14.8439 21.4658 16.2442 20.719L16.2263 20.7141H16.2538C16.9348 20.3502 17.5728 19.917 18.1593 19.4238H3.92822C4.5147 19.917 5.15263 20.3502 5.83366 20.7141Z" fill="white"/>
<path d="M1.67076 16.8294H13.4207L13.4039 16.8342C13.2926 17.2674 13.1717 17.6971 13.0436 18.1245H19.4674C19.8144 17.7199 20.1292 17.2878 20.4129 16.8342L20.3962 16.8294H20.4152C20.675 16.4164 20.9061 15.9856 21.1096 15.5391H0.976562C1.18004 15.9856 1.41103 16.4164 1.67076 16.8294Z" fill="white"/>
<path d="M0.170127 12.9445H14.1379V12.9493C14.084 13.3814 14.0194 13.8123 13.9488 14.2396H21.6016C21.731 13.8195 21.8363 13.3886 21.9153 12.9493L21.8746 12.9445H21.9153C21.9906 12.522 22.0409 12.0911 22.066 11.6543H0.0205078C0.0456372 12.0911 0.0959143 12.522 0.171321 12.9445H0.170127Z" fill="white"/>
<path d="M0 9.06076H14.3938L14.3783 9.06556C14.3783 9.49764 14.3663 9.92732 14.3496 10.3558H22.0863V9.06556L22.0456 9.06076H22.0863V7.77051H0V9.06076Z" fill="white"/>
<path d="M22.0575 1.29144H22.0863V0H0V1.29144H13.4806L13.4052 1.29504C13.5153 1.72234 13.6135 2.15202 13.7056 2.58649H22.0863V1.29504L22.0575 1.29144Z" fill="white"/>
</g>
</svg>
